<?xml version="1.0" standalone="no"?><!DOCTYPE svg PUBLIC "-//W3C//DTD SVG 1.1//EN" "http://www.w3.org/Graphics/SVG/1.1/DTD/svg11.dtd"><svg t="1555345756701" class="icon" style="" viewBox="0 0 1024 1024" version="1.1" xmlns="http://www.w3.org/2000/svg" p-id="3508" xmlns:xlink="http://www.w3.org/1999/xlink" width="200" height="200"><defs><style type="text/css"></style></defs><path d="M512 1024c282.7776 0 512-229.2224 512-512S794.7776 0 512 0 0 229.2224 0 512s229.2224 512 512 512z m279.1168-262.0928a25.6 25.6 0 0 1-25.6 25.6L281.6 787.84a25.6 25.6 0 0 1-25.6-25.6V335.616c0-11.3408 6.7584-21.4784 17.2032-26.0608l237.4656-102.5024a28.5184 28.5184 0 0 1 26.7264 2.4576c7.9872 5.2224 12.9024 14.1056 12.9024 23.6288v532.992h31.9488V305.536c0-9.8304 5.5296-19.0208 14.1312-24.2432A28.1856 28.1856 0 0 1 624.64 281.6l152.3456 88.9856c8.9088 4.9152 14.1312 14.1056 14.1312 24.2432v367.104z m-410.3936-29.5424v-31.616a9.8816 9.8816 0 0 0-9.8304-9.8048h-31.6416a9.8816 9.8816 0 0 0-9.8304 9.8048v31.616c0 5.2224 4.3008 9.8048 9.8304 9.8048h31.6416a9.8816 9.8816 0 0 0 9.8304-9.8048z m0-79.488V621.312a9.8816 9.8816 0 0 0-9.8304-9.8304h-31.6416a9.8816 9.8816 0 0 0-9.8304 9.8304v31.5904c0 5.2224 4.3008 9.8304 9.8304 9.8304h31.6416a9.8816 9.8816 0 0 0 9.8304-9.8304z m0-79.4624v-31.616a9.8816 9.8816 0 0 0-9.8304-9.8048h-31.6416a9.8816 9.8816 0 0 0-9.8304 9.8048V573.44c0 5.2224 4.3008 9.8048 9.8304 9.8048h31.6416a9.8816 9.8816 0 0 0 9.8304-9.8048z m0-79.7952v-31.5904a9.8816 9.8816 0 0 0-9.8304-9.8304h-31.6416a9.8816 9.8816 0 0 0-9.8304 9.8304v31.5904c0 5.2224 4.3008 9.8304 9.8304 9.8304h31.6416a9.8816 9.8816 0 0 0 9.8304-9.8304z m0-79.4624v-31.616a9.8816 9.8816 0 0 0-9.8304-9.8048h-31.6416a9.8816 9.8816 0 0 0-9.8304 9.8048v31.616c0 5.2224 4.3008 9.8048 9.8304 9.8048h31.6416a9.8816 9.8816 0 0 0 9.8304-9.8048z m96.1536 318.208l-0.3072-31.616a9.8816 9.8816 0 0 0-9.8304-9.8048h-31.3344a9.8816 9.8816 0 0 0-9.8304 9.8048v31.616c0 5.2224 4.3008 9.8048 9.8304 9.8048h31.6416a9.8816 9.8816 0 0 0 9.8304-9.8048z m0-79.488l-0.3072-31.5904a9.8816 9.8816 0 0 0-9.8304-9.8304h-31.3344a9.8816 9.8816 0 0 0-9.8304 9.8304v31.5904c0 5.2224 4.3008 9.8304 9.8304 9.8304h31.6416a9.8816 9.8816 0 0 0 9.8304-9.8304z m0-79.4624l-0.3072-31.616a9.8816 9.8816 0 0 0-9.8304-9.8048h-31.3344a9.8816 9.8816 0 0 0-9.8304 9.8048V573.44c0 5.2224 4.3008 9.8048 9.8304 9.8048h31.6416a9.8816 9.8816 0 0 0 9.8304-9.8048z m0-79.7952l-0.3072-31.5904a9.8816 9.8816 0 0 0-9.8304-9.8304h-31.3344a9.8816 9.8816 0 0 0-9.8304 9.8304v31.5904c0 5.2224 4.3008 9.8304 9.8304 9.8304h31.6416a9.8816 9.8816 0 0 0 9.8304-9.8304z m0-79.4624l-0.3072-31.616a9.8816 9.8816 0 0 0-9.8304-9.8048h-31.3344a9.8816 9.8816 0 0 0-9.8304 9.8048v31.616c0 5.2224 4.3008 9.8048 9.8304 9.8048h31.6416a9.8816 9.8816 0 0 0 9.8304-9.8048z m0-79.7952l-0.3072-31.5904a9.8816 9.8816 0 0 0-9.8304-9.8304h-31.3344a9.8816 9.8816 0 0 0-9.8304 9.8304v31.5904c0 5.2224 4.3008 9.8304 9.8304 9.8304h31.6416a9.8816 9.8816 0 0 0 9.8304-9.8304z m234.7008 398.0032v-31.616a9.8816 9.8816 0 0 0-9.8304-9.8048h-31.6416a9.8816 9.8816 0 0 0-9.8304 9.8048v31.616c0 5.2224 4.3008 9.8048 9.8304 9.8048h31.6416a9.8816 9.8816 0 0 0 9.8304-9.8048z m0-79.488V621.312a9.8816 9.8816 0 0 0-9.8304-9.8304h-31.6416a9.8816 9.8816 0 0 0-9.8304 9.8304v31.5904c0 5.2224 4.3008 9.8304 9.8304 9.8304h31.6416a9.8816 9.8816 0 0 0 9.8304-9.8304z m0-79.4624v-31.616a9.8816 9.8816 0 0 0-9.8304-9.8048h-31.6416a9.8816 9.8816 0 0 0-9.8304 9.8048V573.44c0 5.2224 4.3008 9.8048 9.8304 9.8048h31.6416a9.8816 9.8816 0 0 0 9.8304-9.8048z m0-79.7952v-31.5904a9.8816 9.8816 0 0 0-9.8304-9.8304h-31.6416a9.8816 9.8816 0 0 0-9.8304 9.8304v31.5904c0 5.2224 4.3008 9.8304 9.8304 9.8304h31.6416a9.8816 9.8816 0 0 0 9.8304-9.8304z m0-79.4624v-31.616a9.8816 9.8816 0 0 0-9.8304-9.8048h-31.6416a9.8816 9.8816 0 0 0-9.8304 9.8048v31.616c0 5.2224 4.3008 9.8048 9.8304 9.8048h31.6416a9.8816 9.8816 0 0 0 9.8304-9.8048z" fill="#707070" p-id="3509"></path></svg>