<?xml version="1.0" encoding="utf-8"?>
<!-- Generator: Adobe Illustrator 16.0.0, SVG Export Plug-In . SVG Version: 6.00 Build 0)  -->
<!DOCTYPE svg PUBLIC "-//W3C//DTD SVG 1.1//EN" "http://www.w3.org/Graphics/SVG/1.1/DTD/svg11.dtd">
<svg version="1.1" id="Capa_1" xmlns="http://www.w3.org/2000/svg" xmlns:xlink="http://www.w3.org/1999/xlink" x="0px" y="0px"
	 width="841.89px" height="595.281px" viewBox="0 0 841.89 595.281" enable-background="new 0 0 841.89 595.281"
	 xml:space="preserve">
<g>
	<g>
		<path fill="#545E73" d="M485.533,585.378H231.307c-18.984,0-34.366-15.391-34.366-34.365V34.366
			C196.941,15.392,212.333,0,231.307,0h254.226C504.517,0,519.9,15.392,519.9,34.366v516.638
			C519.91,569.988,504.517,585.378,485.533,585.378z"/>
		<rect x="196.941" y="60.557" fill="#8697CB" width="322.968" height="403.71"/>
		<circle fill="#323A45" cx="358.425" cy="524.823" r="30.278"/>
		<path fill="#323A45" d="M358.425,40.371h-40.371c-5.581,0-10.093-4.512-10.093-10.093c0-5.582,4.512-10.093,10.093-10.093h40.371
			c5.582,0,10.093,4.511,10.093,10.093C368.518,35.859,364.007,40.371,358.425,40.371z"/>
		<path fill="#323A45" d="M398.796,40.371h-10.093c-5.582,0-10.093-4.512-10.093-10.093c0-5.582,4.511-10.093,10.093-10.093h10.093
			c5.581,0,10.093,4.511,10.093,10.093C408.889,35.859,404.377,40.371,398.796,40.371z"/>
	</g>
	<g>
		<rect x="443.103" y="433.796" fill="#B1D3EF" width="201.855" height="161.484"/>
		<path fill="#556080" d="M574.31,504.445c0-16.723-13.555-30.277-30.279-30.277c-16.723,0-30.277,13.555-30.277,30.277
			c0,13.293,8.619,24.465,20.537,28.533c-0.109,0.586-0.352,1.131-0.352,1.746v20.186c0,5.57,4.521,10.092,10.092,10.092
			c5.572,0,10.094-4.521,10.094-10.092v-20.186c0-0.615-0.242-1.16-0.354-1.746C565.679,528.91,574.31,517.748,574.31,504.445z"/>
		<path fill="#BDC3C7" d="M493.568,413.611c0-27.826,22.637-50.463,50.463-50.463s50.463,22.637,50.463,50.463v20.186h20.186
			v-20.186c0-38.959-31.689-70.648-70.648-70.648c-38.957,0-70.648,31.689-70.648,70.648v20.186h20.186V413.611z"/>
	</g>
</g>
<g>
	<g>
		<path fill="#545E73" d="M367.844,232.077c0-0.01,0-0.021,0-0.031c0.769,0,1.539,0,2.309,0c16.454-0.002,32.911-0.005,49.36,0.002
			c3.683,0.003,6.824-1.166,9.06-4.192c2.781-3.756,2.43-8.093,1.566-12.219c-1.018-4.86-5.029-7.526-10.279-7.526
			c-34.115,0-68.235,0.019-102.352,0.031c-0.275,0-0.552-0.005-0.826,0.01c-6.04,0.272-10.115,4.467-10.199,10.508
			c-0.015,1.101-0.02,2.201,0.005,3.3c0.123,5.822,4.353,10.087,10.182,10.104C333.73,232.102,350.788,232.077,367.844,232.077z
			 M307.089,172.783c0-0.022,0-0.046,0-0.068c-0.661,0-1.32-0.002-1.982,0c-6.819,0.048-13.684-0.359-20.455,0.239
			c-15.684,1.392-28.763,14.011-31.254,29.535c-0.347,2.16-0.146,2.42,2.015,2.422c7.647,0.005,15.295-0.026,22.943,0.03
			c1.431,0.009,2.282-0.479,3.082-1.682c3.127-4.712,7.589-7.748,13.185-8.061c7.678-0.428,15.4-0.27,23.099-0.148
			c6.52,0.107,11.555,3.15,15.128,8.572c0.624,0.945,1.339,1.31,2.44,1.305c7.922-0.027,15.846-0.036,23.769,0.002
			c1.484,0.007,2.097-0.56,1.655-1.979c-1.108-3.555-1.787-7.339-3.495-10.59c-6.309-12.022-16.329-18.8-30.003-19.514
			C320.527,172.496,313.801,172.783,307.089,172.783z M429.949,267.406c0,0.02,0,0.044,0,0.07c5.83,0,11.67,0.114,17.494-0.053
			c3.225-0.089,6.494-0.37,9.633-1.054c13.424-2.938,24.682-15.271,26.576-28.85c0.281-2.011,0.086-2.241-2.057-2.244
			c-7.645-0.007-15.295,0.029-22.939-0.031c-1.441-0.01-2.281,0.497-3.08,1.693c-3.131,4.707-7.596,7.743-13.193,8.051
			c-7.676,0.428-15.398,0.272-23.095,0.146c-6.523-0.104-11.503-3.193-15.184-8.542c-0.443-0.639-1.465-1.251-2.221-1.261
			c-7.977-0.089-15.96-0.035-23.934-0.073c-1.507-0.008-1.917,0.555-1.665,2.001c0.822,4.768,2.343,9.284,4.995,13.343
			c6.723,10.308,16.151,16.195,28.54,16.75C416.517,267.643,423.236,267.406,429.949,267.406z M430.068,172.732
			c0,0.002,0,0.005,0,0.007c-6.928,0-13.862-0.035-20.793,0.026c-1.634,0.015-3.308,0.181-4.895,0.566
			c-15.44,3.764-24.734,13.498-27.976,29.028c-0.454,2.175-0.318,2.31,1.818,2.312c7.811,0.002,15.627-0.022,23.437,0.028
			c1.244,0.005,1.967-0.403,2.673-1.444c3.37-4.984,8.039-8.028,14.109-8.242c7.251-0.251,14.517-0.256,21.775-0.155
			c6.742,0.097,12.004,3.083,15.773,8.729c0.369,0.557,1.313,1.033,1.992,1.036c8.029,0.072,16.068,0.021,24.1,0.075
			c1.469,0.008,1.91-0.612,1.596-1.88c-0.623-2.501-1.121-5.053-2.02-7.457c-4.936-13.244-18.396-22.755-32.115-22.636
			C443.048,172.78,436.562,172.732,430.068,172.732z M306.999,267.456c0-0.005,0-0.013,0-0.013c6.989,0,13.971,0.033,20.958-0.025
			c1.526-0.01,3.079-0.189,4.571-0.522c14.972-3.308,25.386-14.163,28.15-29.267c0.348-1.897,0.188-2.111-1.75-2.111
			c-7.758-0.005-15.516,0.03-23.271-0.036c-1.419-0.01-2.262,0.408-3.086,1.615c-3.319,4.859-7.926,7.843-13.862,8.066
			c-7.251,0.266-14.515,0.264-21.773,0.173c-6.731-0.084-12.079-2.965-15.762-8.678c-0.642-0.996-1.446-1.164-2.5-1.161
			c-7.757,0.026-15.512,0.014-23.271,0.016c-2.192,0-2.358,0.209-1.983,2.386c0.917,5.342,2.853,10.283,6.087,14.635
			c7.052,9.492,16.348,14.817,28.351,14.909C294.231,267.496,300.617,267.456,306.999,267.456z M400.602,294.267
			c-0.826-1.194-1.413-2.035-1.984-2.881c-2.788-4.093-5.586-8.172-8.33-12.291c-0.622-0.93-1.345-1.313-2.457-1.278
			c-1.922,0.065-3.853,0.01-5.775,0.02c-1.965,0.01-2.123,0.164-2.13,2.204c-0.012,3.686-0.005,7.367-0.005,11.053
			c0,4.954,0,9.903,0,14.853c0,4.383-0.142,3.721,3.685,3.771c1.433,0.015,2.863-0.06,4.29,0.015
			c1.281,0.07,1.749-0.412,1.731-1.711c-0.057-4.29-0.022-8.58-0.017-12.868c0-0.518,0.052-1.029,0.092-1.885
			c0.42,0.611,0.637,0.92,0.848,1.238c3.116,4.591,6.203,9.21,9.391,13.756c0.463,0.662,1.398,1.326,2.159,1.383
			c2.241,0.182,4.507,0.043,6.763,0.077c1.124,0.022,1.572-0.433,1.567-1.56c-0.015-9.564-0.02-19.143,0.005-28.708
			c0.005-1.229-0.525-1.651-1.694-1.629c-2.084,0.042-4.183,0.062-6.265-0.01c-1.415-0.052-1.808,0.609-1.796,1.896
			c0.042,4.178,0.02,8.359,0.013,12.54C400.691,292.775,400.646,293.296,400.602,294.267z M340.132,304.457
			c1.562,0,2.753-0.021,3.943,0.01c1.42,0.032,3.116-0.344,4.171,0.304c0.867,0.537,0.882,2.353,1.434,3.521
			c0.258,0.56,0.864,1.32,1.343,1.343c2.798,0.129,5.604,0.072,8.409,0.063c1.035-0.005,1.182-0.582,0.853-1.433
			c-0.394-1.024-0.773-2.06-1.159-3.089c-3.213-8.591-6.436-17.181-9.626-25.786c-0.396-1.055-0.942-1.612-2.155-1.582
			c-2.638,0.07-5.279,0.055-7.918,0.01c-1.042-0.02-1.638,0.398-1.974,1.353c-0.471,1.348-0.993,2.681-1.494,4.014
			c-3.12,8.277-6.228,16.56-9.368,24.826c-0.471,1.241-0.14,1.731,1.182,1.711c2.366-0.04,4.729-0.069,7.093,0.015
			c1.222,0.04,1.8-0.482,2.116-1.581c0.662-2.328,1.375-4.636,2.076-6.944c1.353-4.447,2.709-8.889,4.067-13.326
			c0.109,0,0.219-0.005,0.329-0.005c0.904,3,1.806,5.994,2.822,9.351c-1.116,0-1.925-0.079-2.712,0.025
			c-0.479,0.069-1.205,0.313-1.332,0.656C341.492,299.953,340.889,302.046,340.132,304.457z M274.421,310.134
			c0-0.02,0.002-0.053,0.002-0.074c0.605,0,1.212,0.005,1.815,0c6.029-0.055,10.785-3.701,12.442-9.456
			c0.323-1.135,0.101-1.786-1.062-2.104c-1.327-0.363-2.639-0.771-3.954-1.164c-3.219-0.955-3.219-0.96-4.6,2.015
			c-0.048,0.1-0.093,0.199-0.144,0.299c-1.05,2.015-2.94,2.915-5.567,2.656c-2.282-0.224-3.777-1.418-4.357-3.642
			c-0.757-2.917-0.848-5.877-0.211-8.824c0.577-2.673,2.282-4.175,4.992-4.536c2.343-0.313,4.26,0.846,5.609,3.188
			c0.26,0.453,1.108,0.902,1.594,0.82c2.216-0.37,4.398-0.955,6.602-1.415c0.972-0.204,1.149-0.704,0.805-1.54
			c-1.676-4.066-4.231-7.307-8.739-8.232c-2.498-0.512-5.133-0.751-7.672-0.597c-5.321,0.328-9.643,2.616-12.102,7.585
			c-1.594,3.226-2.065,6.712-1.793,10.287c0.598,7.866,4.999,13.156,12.071,14.457C271.543,310.102,272.997,310.049,274.421,310.134
			z M460.259,310.06c0.91,0,1.4,0.005,1.895,0c6.348-0.035,10.814-3.373,12.773-9.456c0.395-1.222,0.164-1.826-1.109-2.145
			c-1.701-0.428-3.381-0.944-5.059-1.481c-2.23-0.717-2.211-0.736-3.014,1.357c-0.236,0.609-0.537,1.209-0.881,1.769
			c-1.184,1.962-3.076,2.357-5.152,2.191c-2.025-0.154-3.576-1.06-4.271-3.079c-1.139-3.323-1.18-6.711-0.184-10.046
			c0.734-2.484,2.58-3.8,5.156-3.887c2.355-0.084,4.184,0.918,5.15,3.128c0.428,0.961,0.945,1.154,1.93,0.9
			c2.072-0.537,4.176-0.979,6.27-1.412c0.939-0.194,1.297-0.682,0.799-1.498c-1.166-1.905-2.121-4.049-3.68-5.571
			c-3.813-3.726-8.748-3.726-13.635-3.206c-4.566,0.48-8.248,2.594-10.668,6.608c-1.482,2.457-2.07,5.193-2.201,8.025
			c-0.203,4.671,0.537,9.091,3.607,12.866C451.283,309.179,455.699,310.324,460.259,310.06z M323.535,293.833
			c0-4.73-0.033-9.456,0.023-14.181c0.015-1.363-0.481-1.875-1.832-1.836c-2.2,0.065-4.401,0.085-6.599-0.005
			c-1.548-0.06-2.02,0.612-1.979,2.064c0.068,2.417-0.028,4.84,0.035,7.257c0.036,1.223-0.425,1.651-1.634,1.614
			c-2.089-0.066-4.179,0.021-6.265-0.032c-1.193-0.024-1.717,0.46-1.694,1.651c0.032,1.706,0.032,3.412,0,5.113
			c-0.023,1.189,0.496,1.677,1.69,1.646c2.089-0.05,4.182,0.04,6.269-0.029c1.209-0.04,1.66,0.383,1.634,1.611
			c-0.059,2.97,0.041,5.944-0.038,8.909c-0.041,1.517,0.399,2.218,2.047,2.129c2.087-0.114,4.182-0.104,6.265,0
			c1.555,0.069,2.14-0.443,2.109-2.055C323.481,303.076,323.538,298.455,323.535,293.833z M373.73,293.769
			c0-4.73-0.029-9.463,0.022-14.191c0.01-1.269-0.438-1.791-1.727-1.756c-2.31,0.055-4.623,0.044-6.929,0.005
			c-1.171-0.025-1.717,0.433-1.717,1.636c0.019,9.565,0.016,19.139,0,28.706c0,1.104,0.451,1.582,1.584,1.562
			c2.255-0.044,4.513-0.099,6.763,0.016c1.638,0.084,2.058-0.587,2.032-2.119C373.682,303.011,373.732,298.39,373.73,293.769z
			 M427.289,289.661c-4.346,0-8.685,0.067-13.028-0.03c-1.699-0.042-2.253,0.553-2.122,2.191c0.122,1.529,0.067,3.079,0.015,4.613
			c-0.045,1.137,0.453,1.597,1.552,1.592c9.018-0.005,18.034-0.005,27.049,0.01c1.201,0.006,1.672-0.526,1.645-1.706
			c-0.053-1.592-0.078-3.193,0.008-4.78c0.074-1.438-0.496-1.932-1.92-1.909C436.085,289.706,431.687,289.666,427.289,289.661z
			 M303.349,303.725c0-1.54-0.017-3.074,0.008-4.613c0.015-1.042-0.46-1.487-1.495-1.478c-2.471,0.027-4.943,0.022-7.414,0.005
			c-0.968-0.005-1.413,0.46-1.41,1.405c0,3.131,0,6.258,0.002,9.389c0,0.881,0.433,1.288,1.327,1.283
			c2.523-0.015,5.05-0.024,7.577,0c1.097,0.015,1.427-0.552,1.41-1.542C303.332,306.69,303.352,305.208,303.349,303.725z
			 M303.349,283.033c0-1.256-0.012-2.52,0.002-3.778c0.01-0.955-0.413-1.425-1.385-1.415c-2.522,0.013-5.042,0.013-7.564,0
			c-0.987,0-1.364,0.54-1.364,1.448c0,2.577,0.01,5.156-0.005,7.727c-0.008,0.973,0.453,1.405,1.398,1.405
			c2.521-0.01,5.042-0.005,7.564-0.01c0.949,0,1.385-0.465,1.364-1.43C303.327,285.667,303.349,284.353,303.349,283.033z"/>
	</g>
</g>
</svg>
