<?xml version="1.0" standalone="no"?><!DOCTYPE svg PUBLIC "-//W3C//DTD SVG 1.1//EN" "http://www.w3.org/Graphics/SVG/1.1/DTD/svg11.dtd"><svg t="1554976500011" class="icon" style="" viewBox="0 0 1024 1024" version="1.1" xmlns="http://www.w3.org/2000/svg" p-id="2234" xmlns:xlink="http://www.w3.org/1999/xlink" width="200" height="200"><defs><style type="text/css"></style></defs><path d="M438.049754 281.276175c-29.579689 35.496445-72.009034 81.85324-127.193891 139.025357 53.243645-1.941212 107.458407-4.437056 162.689313-7.395434 55.184857-2.958378 123.218346-7.395434 204.101491-13.311167-15.807011-23.663956-48.345078-57.172117-97.614202-100.571556 15.758915-9.844206 31.520901-24.63405 47.327912-44.369533 74.919317 76.907601 140.966569 147.899468 198.185758 212.975603-21.723767 11.83249-40.442084 26.622334-56.202023 44.369533-17.748223-27.592428-34.526351-48.298006-50.28629-62.117756-98.631368 5.915733-195.735963 12.341073-291.362904 19.2269-95.67299 6.932899-162.227802 17.285688-199.664436 31.05939-7.904017-37.436634-17.748223-63.08785-29.579689-76.907601 27.592428-7.856945 64.567551-35.496445 110.924345-82.824357 46.310745-47.327912 88.231507-105.471147 125.715213-174.521802 27.592428 21.722744 51.256384 36.512588 70.991868 44.369533C490.277256 222.116797 467.629443 245.780753 438.049754 281.276175zM745.68118 704.269002c0 65.076134 0.969071 115.361401 2.958378 150.857846l-65.076134 0L683.563424 813.715693 319.729975 813.715693l0 44.369533L254.653841 858.085226c1.941212-29.579689 2.958378-74.92034 2.958378-136.068002 0-63.08785-1.017166-120.259968-2.958378-171.563424l493.984694 0C746.650251 585.949222 745.68118 637.252679 745.68118 704.269002zM683.563424 757.51367 683.563424 606.655823 319.729975 606.655823l0 150.857846L683.563424 757.51367z" p-id="2235" fill="#707070"></path></svg>