<svg height="512pt" viewBox="-68 0 512 512" width="512pt" xmlns="http://www.w3.org/2000/svg"><path d="m59.621094 479.480469c1.84375-1.007813 4.074218-1.007813 5.917968 0l59.617188 32.519531 59.621094-32.519531c1.84375-1.007813 4.074218-1.007813 5.917968 0l56.65625 30.90625c1.84375 1.003906 4.066407 1.007812 5.910157.003906 10.527343-5.742187 46.152343-25.171875 56.675781-30.914063 1.84375-1.007812 4.066406-1.003906 5.914062.003907l50.472657 27.535156c4.121093 2.25 9.140625-.734375 9.140625-5.425781v-484.523438c.003906-9.425781-7.640625-17.066406-17.066406-17.066406h-341.332032c-9.425781 0-17.066406 7.640625-17.066406 17.066406v484.523438c0 4.691406 5.023438 7.675781 9.140625 5.425781zm0 0" fill="#ede9e8"/><g fill="#dfd7d5"><path d="m358.398438 0h-22.660157c9.425781 0 17.066407 7.640625 17.066407 17.066406v482.574219l13.519531 7.375c4.121093 2.246094 9.144531-.734375 9.144531-5.425781v-484.523438c0-9.425781-7.644531-17.066406-17.070312-17.066406zm0 0"/><path d="m42.878906 479.480469c-1.847656-1.007813-4.078125-1.007813-5.921875 0l-36.957031 20.160156v1.949219c0 4.691406 5.023438 7.675781 9.140625 5.425781l42.109375-22.96875zm0 0"/><path d="m168.03125 479.480469c-1.84375-1.007813-4.074219-1.007813-5.917969 0l-48.285156 26.339843 11.328125 6.179688h.003906l51.246094-27.953125zm0 0"/><path d="m293.1875 479.480469c-1.84375-1.007813-4.066406-1.011719-5.910156-.003907-8.527344 4.652344-33.511719 18.277344-48.296875 26.34375l8.371093 4.5625c1.847657 1.007813 4.066407 1.011719 5.914063.007813 8.523437-4.652344 33.507813-18.28125 48.292969-26.34375zm0 0"/></g><path d="m335.152344 358.398438h-294.835938c-3.414062 0-6.179687-2.765626-6.179687-6.179688v-311.90625c0-3.414062 2.765625-6.179688 6.179687-6.179688h294.835938c3.414062 0 6.179687 2.765626 6.179687 6.179688v311.90625c0 3.414062-2.765625 6.179688-6.179687 6.179688zm0 0" fill="#aaebf9"/><path d="m335.152344 34.132812h-22.664063c3.414063 0 6.179688 2.765626 6.179688 6.179688v311.90625c0 3.414062-2.765625 6.179688-6.179688 6.179688h22.664063c3.414062 0 6.179687-2.765626 6.179687-6.179688v-311.90625c0-3.414062-2.765625-6.179688-6.179687-6.179688zm0 0" fill="#7be2f6"/><path d="m85.335938 358.402344v-34.132813c0-28.277343 22.921874-51.199219 51.199218-51.199219h102.398438c28.277344 0 51.203125 22.921876 51.203125 51.199219v34.132813zm0 0" fill="#fc4c1e"/><path d="m238.933594 273.070312h-22.664063c28.277344 0 51.203125 22.921876 51.203125 51.199219v34.132813h22.664063v-34.132813c0-28.277343-22.925781-51.199219-51.203125-51.199219zm0 0" fill="#db3618"/><path d="m162.136719 219.945312v50.566407c0 1.636719.648437 3.210937 1.808593 4.371093l19.417969 19.417969c2.414063 2.414063 6.328125 2.414063 8.742188 0l19.417969-19.417969c1.160156-1.160156 1.8125-2.734374 1.8125-4.371093v-50.566407zm0 0" fill="#fda792"/><path d="m238.9375 136.53125c0-18.851562-15.285156-34.132812-34.136719-34.132812-6.21875 0-27.914062 0-34.132812 0-18.851563 0-34.132813 15.28125-34.132813 34.132812v51.203125c0 28.277344 22.921875 51.199219 51.199219 51.199219s51.199219-22.921875 51.199219-51.199219c0-10.546875.003906-42.480469.003906-51.203125zm0 0" fill="#fecec0"/><path d="m204.800781 102.398438c-3.953125 0-14.15625 0-22.664062 0 18.851562 0 34.132812 15.28125 34.132812 34.132812v51.203125c0 24.378906-17.046875 44.765625-39.867187 49.925781 3.644531.824219 7.433594 1.273438 11.332031 1.273438 28.277344 0 51.199219-22.921875 51.199219-51.199219 0-10.546875.003906-42.480469.003906-51.203125 0-18.851562-15.285156-34.132812-34.136719-34.132812zm0 0" fill="#fda792"/><path d="m196.269531 212.527344h-17.066406c-4.269531 0-7.726563-3.457032-7.726563-7.726563 0-4.265625 3.457032-7.722656 7.726563-7.722656h17.066406c4.265625 0 7.726563 3.457031 7.726563 7.722656 0 4.269531-3.460938 7.726563-7.726563 7.726563zm0 0" fill="#fda792"/><path d="m170.667969 168.09375c-4.265625 0-7.726563-3.460938-7.726563-7.726562v-8.535157c0-4.265625 3.460938-7.726562 7.726563-7.726562s7.726562 3.460937 7.726562 7.726562v8.535157c0 4.265624-3.460937 7.726562-7.726562 7.726562zm0 0" fill="#685450"/><path d="m204.800781 168.09375c-4.265625 0-7.726562-3.460938-7.726562-7.726562v-8.535157c0-4.265625 3.460937-7.726562 7.726562-7.726562 4.269531 0 7.726563 3.460937 7.726563 7.726562v8.535157c0 4.265624-3.457032 7.726562-7.726563 7.726562zm0 0" fill="#685450"/><path d="m335.152344 392.539062h-294.835938c-3.414062 0-6.179687 2.765626-6.179687 6.179688v94.664062l25.484375-13.902343c1.84375-1.007813 4.074218-1.007813 5.917968 0l59.617188 32.519531 59.621094-32.519531c1.84375-1.007813 4.074218-1.007813 5.917968 0l56.65625 30.90625c1.84375 1.003906 4.066407 1.007812 5.910157.003906 10.527343-5.742187 46.152343-25.171875 56.675781-30.914063 1.84375-1.007812 4.066406-1.003906 5.914062.003907l25.480469 13.902343v-94.664062c0-3.414062-2.765625-6.179688-6.179687-6.179688zm0 0" fill="#aaebf9"/><path d="m42.875 479.480469c-1.84375-1.007813-4.074219-1.007813-5.917969 0l-2.820312 1.539062v12.363281l17.113281-9.335937zm0 0" fill="#7be2f6"/><path d="m168.03125 479.480469c-1.84375-1.007813-4.074219-1.007813-5.917969 0l-48.289062 26.339843 11.332031 6.179688 51.246094-27.953125zm0 0" fill="#7be2f6"/><path d="m335.152344 392.539062h-22.664063c3.414063 0 6.179688 2.765626 6.179688 6.179688v82.300781l22.664062 12.363281v-94.664062c0-3.414062-2.765625-6.179688-6.179687-6.179688zm0 0" fill="#7be2f6"/><path d="m293.1875 479.480469c-1.84375-1.007813-4.066406-1.011719-5.910156-.003907-8.527344 4.652344-33.511719 18.277344-48.296875 26.34375l8.375 4.566407c1.84375 1.003906 4.0625 1.007812 5.910156.003906 8.523437-4.648437 33.507813-18.277344 48.292969-26.339844zm0 0" fill="#7be2f6"/></svg>