<?xml version="1.0" standalone="no"?><!DOCTYPE svg PUBLIC "-//W3C//DTD SVG 1.1//EN" "http://www.w3.org/Graphics/SVG/1.1/DTD/svg11.dtd"><svg t="1554105946203" class="icon" style="" viewBox="0 0 2205 1024" version="1.1" xmlns="http://www.w3.org/2000/svg" p-id="2380" xmlns:xlink="http://www.w3.org/1999/xlink" width="430.6640625" height="200"><defs><style type="text/css"></style></defs><path d="M68.371692 40.487385h966.025846v76.091077h-567.926153v48.521846a1974.744615 1974.744615 0 0 1-11.027693 188.573538h475.293539c-2.205538 291.131077-14.336 466.471385-38.596923 523.815385-26.466462 57.344-70.577231 86.016-132.332308 86.016-44.110769 0-98.146462-2.205538-159.901538-4.411077l-19.849847-76.091077c65.063385 2.205538 117.996308 4.411077 159.901539 5.513846 46.316308-2.205538 76.091077-27.569231 89.324308-77.193846 11.027692-48.521846 18.747077-177.545846 20.952615-384.866462H446.621538c-15.438769 101.454769-38.596923 189.676308-71.68 263.561847-57.344 122.407385-151.079385 217.245538-279.000615 284.514461l-44.110769-69.474461c125.715692-68.371692 212.834462-161.004308 262.459077-275.692308 46.316308-119.099077 70.577231-273.486769 73.885538-464.265846V116.578462H68.371692V40.487385zM1268.184615 27.254154h762.013539v77.193846H1268.184615v-77.193846z m-84.91323 324.214154h942.867692v77.193846h-304.364308v411.332923c0 30.877538 15.438769 47.419077 48.521846 47.419077h122.407385c24.260923 0 40.802462-8.822154 49.624615-25.363692 13.233231-19.849846 20.952615-79.399385 25.363693-178.648616l72.782769 23.158154c-7.719385 120.201846-22.055385 192.984615-44.110769 218.348308-18.747077 22.055385-48.521846 34.185846-88.221539 34.185846h-159.901538c-69.474462 0-103.660308-34.185846-103.660308-102.557539V428.662154h-198.498461v16.541538c-3.308308 143.36-33.083077 259.150769-88.221539 346.269539-55.138462 80.502154-143.36 143.36-265.767385 188.573538l-43.008-67.268923c119.099077-44.110769 201.806769-101.454769 249.225847-174.237538 44.110769-74.988308 68.371692-173.134769 70.57723-293.336616v-16.541538h-285.61723v-77.193846z" fill="#515151" p-id="2381"></path></svg>