<?xml version="1.0" standalone="no"?><!DOCTYPE svg PUBLIC "-//W3C//DTD SVG 1.1//EN" "http://www.w3.org/Graphics/SVG/1.1/DTD/svg11.dtd"><svg t="1554109149880" class="icon" style="" viewBox="0 0 1024 1024" version="1.1" xmlns="http://www.w3.org/2000/svg" p-id="8408" xmlns:xlink="http://www.w3.org/1999/xlink" width="200" height="200"><defs><style type="text/css"></style></defs><path d="M203.385535 932.514909V542.639838h-111.900444C153.651717 392.550141 200.722101 242.461737 231.805414 92.37204h136.767354c-15.985778 80.817131-36.411475 159.859071-60.390142 236.23499h30.195071v603.907879H203.385535z m189.165899-5.328162v-49.733818h539.963475v49.733818H392.551434z m13.321051-658.082909v-50.62206h192.717576V91.485091h134.990868v126.99798h186.501172v50.62206H405.872485z m86.145293 567.496404c-22.202182-167.849374-39.076202-338.366061-47.957334-513.321373H579.051313c10.657616 174.955313 26.642101 345.472 47.069091 513.321373h-134.102626z m214.919757 0c20.42699-167.849374 37.30101-338.366061 48.845576-513.321373h134.990869c-9.769374 174.955313-26.643394 345.472-48.845576 513.321373H706.937535z" p-id="8409" fill="#515151"></path></svg>