<?xml version="1.0" encoding="iso-8859-1"?>
<!-- Generator: Adobe Illustrator 16.0.0, SVG Export Plug-In . SVG Version: 6.00 Build 0)  -->
<!DOCTYPE svg PUBLIC "-//W3C//DTD SVG 1.1//EN" "http://www.w3.org/Graphics/SVG/1.1/DTD/svg11.dtd">
<svg version="1.1" id="Layer_1" xmlns="http://www.w3.org/2000/svg" xmlns:xlink="http://www.w3.org/1999/xlink" x="0px" y="0px"
	 width="100px" height="100px" viewBox="0 0 100 100" style="enable-background:new 0 0 100 100;" xml:space="preserve">
<g>
	<path style="fill-rule:evenodd;clip-rule:evenodd;" d="M50.825,47.976c0-0.004,0-0.008,0-0.012c0.302,0,0.604,0,0.907,0
		c6.46-0.001,12.922-0.002,19.381,0.001c1.446,0.001,2.68-0.458,3.558-1.646c1.091-1.475,0.954-3.178,0.615-4.798
		c-0.4-1.908-1.975-2.955-4.036-2.955c-13.396,0-26.793,0.007-40.189,0.012c-0.108,0-0.217-0.002-0.324,0.004
		c-2.372,0.107-3.972,1.754-4.005,4.126c-0.006,0.432-0.008,0.864,0.002,1.296c0.048,2.286,1.709,3.961,3.998,3.967
		C37.43,47.986,44.128,47.976,50.825,47.976z M26.969,24.694c0-0.009,0-0.018,0-0.027c-0.259,0-0.518-0.001-0.778,0
		c-2.678,0.019-5.373-0.141-8.032,0.094c-6.158,0.546-11.294,5.501-12.272,11.597c-0.136,0.848-0.057,0.95,0.791,0.951
		c3.003,0.002,6.006-0.01,9.009,0.012c0.562,0.003,0.896-0.188,1.21-0.661c1.228-1.85,2.98-3.042,5.177-3.165
		c3.015-0.168,6.047-0.106,9.07-0.058c2.56,0.042,4.537,1.237,5.94,3.366c0.245,0.371,0.526,0.514,0.958,0.512
		c3.111-0.011,6.222-0.014,9.333,0.001c0.583,0.003,0.823-0.22,0.65-0.777c-0.435-1.396-0.702-2.882-1.372-4.158
		c-2.477-4.721-6.412-7.382-11.781-7.662C32.246,24.581,29.605,24.694,26.969,24.694z M75.211,61.848c0,0.008,0,0.018,0,0.027
		c2.289,0,4.582,0.045,6.869-0.02c1.265-0.035,2.55-0.145,3.782-0.414c5.271-1.154,9.691-5.996,10.436-11.328
		c0.11-0.79,0.033-0.88-0.808-0.881c-3.002-0.003-6.006,0.011-9.008-0.012c-0.565-0.004-0.895,0.195-1.209,0.665
		c-1.229,1.848-2.982,3.04-5.18,3.161c-3.014,0.168-6.046,0.107-9.069,0.057c-2.561-0.041-4.516-1.254-5.962-3.354
		c-0.174-0.251-0.575-0.491-0.872-0.495c-3.132-0.035-6.266-0.014-9.397-0.029c-0.592-0.003-0.753,0.218-0.654,0.786
		c0.323,1.872,0.92,3.645,1.961,5.239c2.64,4.047,6.342,6.359,11.206,6.576C69.936,61.941,72.575,61.848,75.211,61.848z
		 M75.258,24.674c0,0.001,0,0.002,0,0.003c-2.721,0-5.444-0.014-8.165,0.01c-0.642,0.006-1.299,0.071-1.922,0.222
		c-6.063,1.478-9.712,5.3-10.985,11.398c-0.178,0.854-0.125,0.907,0.714,0.908c3.067,0.001,6.136-0.009,9.202,0.011
		c0.489,0.002,0.773-0.158,1.05-0.567c1.323-1.957,3.156-3.152,5.54-3.236c2.848-0.099,5.7-0.101,8.55-0.061
		c2.647,0.038,4.714,1.21,6.193,3.427c0.146,0.219,0.516,0.406,0.783,0.407c3.153,0.028,6.309,0.008,9.462,0.029
		c0.578,0.003,0.75-0.24,0.627-0.738c-0.245-0.982-0.44-1.984-0.793-2.928c-1.938-5.2-7.223-8.935-12.61-8.888
		C80.354,24.693,77.807,24.674,75.258,24.674z M26.934,61.867c0-0.002,0-0.004,0-0.004c2.744,0,5.486,0.012,8.229-0.01
		c0.599-0.004,1.209-0.074,1.795-0.205c5.879-1.299,9.968-5.561,11.053-11.492c0.137-0.745,0.074-0.829-0.687-0.829
		c-3.046-0.002-6.092,0.012-9.137-0.014c-0.557-0.004-0.888,0.16-1.212,0.634c-1.303,1.908-3.112,3.08-5.443,3.167
		c-2.847,0.105-5.699,0.104-8.549,0.068c-2.643-0.033-4.743-1.164-6.189-3.407c-0.252-0.391-0.568-0.457-0.982-0.456
		c-3.046,0.01-6.091,0.005-9.137,0.006c-0.861,0-0.926,0.082-0.779,0.937c0.36,2.098,1.12,4.038,2.39,5.747
		c2.769,3.727,6.419,5.818,11.132,5.854C21.921,61.883,24.428,61.867,26.934,61.867z M63.687,72.395
		c-0.324-0.469-0.554-0.799-0.779-1.131c-1.095-1.607-2.193-3.209-3.271-4.826c-0.244-0.365-0.528-0.516-0.964-0.502
		c-0.755,0.025-1.513,0.004-2.268,0.008c-0.771,0.004-0.833,0.064-0.836,0.865c-0.005,1.447-0.002,2.893-0.002,4.34
		c0,1.945,0,3.889,0,5.832c0,1.721-0.056,1.461,1.446,1.48c0.563,0.006,1.124-0.023,1.685,0.006c0.503,0.027,0.687-0.162,0.68-0.672
		c-0.023-1.684-0.009-3.369-0.007-5.053c0-0.203,0.02-0.404,0.036-0.74c0.165,0.24,0.25,0.361,0.333,0.486
		c1.224,1.803,2.436,3.617,3.687,5.402c0.182,0.26,0.549,0.52,0.848,0.543c0.88,0.072,1.77,0.016,2.655,0.031
		c0.442,0.008,0.618-0.17,0.616-0.613c-0.006-3.756-0.008-7.516,0.002-11.273c0.002-0.482-0.206-0.648-0.665-0.639
		c-0.819,0.016-1.643,0.025-2.46-0.004c-0.556-0.02-0.71,0.24-0.705,0.744c0.016,1.641,0.007,3.283,0.004,4.924
		C63.722,71.809,63.705,72.014,63.687,72.395z M39.944,76.396c0.613,0,1.081-0.008,1.548,0.004c0.558,0.012,1.224-0.135,1.638,0.119
		c0.34,0.211,0.346,0.924,0.563,1.383c0.101,0.219,0.339,0.518,0.527,0.527c1.099,0.051,2.201,0.029,3.302,0.025
		c0.406-0.002,0.464-0.229,0.335-0.563c-0.155-0.402-0.304-0.809-0.455-1.213c-1.262-3.373-2.527-6.746-3.78-10.125
		c-0.155-0.414-0.37-0.633-0.846-0.621c-1.036,0.027-2.073,0.021-3.109,0.004c-0.409-0.008-0.643,0.156-0.775,0.531
		c-0.185,0.529-0.39,1.053-0.587,1.576c-1.225,3.25-2.445,6.502-3.678,9.748c-0.185,0.488-0.055,0.68,0.464,0.672
		c0.929-0.016,1.857-0.027,2.785,0.006c0.48,0.016,0.707-0.189,0.831-0.621c0.26-0.914,0.54-1.82,0.815-2.727
		c0.531-1.746,1.064-3.49,1.597-5.232c0.043,0,0.086-0.002,0.129-0.002c0.355,1.178,0.709,2.354,1.108,3.672
		c-0.438,0-0.756-0.031-1.065,0.01c-0.188,0.027-0.473,0.123-0.523,0.258C40.478,74.627,40.241,75.449,39.944,76.396z
		 M14.142,78.625c0-0.008,0.001-0.02,0.001-0.029c0.238,0,0.476,0.002,0.713,0c2.367-0.021,4.235-1.453,4.885-3.713
		c0.127-0.445,0.04-0.701-0.417-0.826c-0.521-0.143-1.036-0.303-1.552-0.457c-1.264-0.375-1.264-0.377-1.806,0.791
		c-0.019,0.039-0.037,0.078-0.057,0.117c-0.412,0.791-1.154,1.145-2.186,1.043c-0.896-0.088-1.483-0.557-1.711-1.43
		c-0.297-1.145-0.333-2.307-0.083-3.465c0.227-1.049,0.896-1.639,1.96-1.781c0.92-0.123,1.673,0.332,2.203,1.252
		c0.102,0.178,0.435,0.355,0.626,0.322c0.87-0.145,1.727-0.375,2.592-0.555c0.382-0.08,0.451-0.277,0.316-0.605
		c-0.658-1.596-1.661-2.869-3.431-3.232c-0.981-0.201-2.016-0.295-3.013-0.234c-2.089,0.129-3.786,1.027-4.752,2.979
		c-0.626,1.266-0.811,2.635-0.704,4.039c0.235,3.088,1.963,5.166,4.74,5.676C13.012,78.613,13.583,78.592,14.142,78.625z
		 M87.112,78.596c0.357,0,0.55,0.002,0.744,0c2.492-0.014,4.246-1.324,5.016-3.713c0.154-0.479,0.064-0.717-0.436-0.842
		c-0.668-0.168-1.328-0.371-1.986-0.582c-0.876-0.281-0.868-0.289-1.184,0.533c-0.092,0.24-0.211,0.475-0.345,0.695
		c-0.465,0.77-1.208,0.926-2.024,0.861c-0.795-0.061-1.404-0.416-1.677-1.209c-0.447-1.305-0.463-2.635-0.072-3.945
		c0.288-0.975,1.013-1.492,2.025-1.527c0.924-0.033,1.642,0.361,2.022,1.229c0.168,0.377,0.371,0.453,0.758,0.354
		c0.813-0.211,1.64-0.385,2.462-0.555c0.368-0.076,0.509-0.268,0.313-0.588c-0.458-0.748-0.833-1.59-1.445-2.188
		c-1.497-1.463-3.435-1.463-5.354-1.258c-1.793,0.189-3.238,1.018-4.188,2.594c-0.582,0.965-0.814,2.039-0.864,3.152
		c-0.08,1.834,0.211,3.57,1.416,5.051C83.588,78.25,85.321,78.699,87.112,78.596z M33.427,72.225c0-1.857-0.013-3.713,0.009-5.568
		c0.006-0.535-0.189-0.736-0.719-0.721c-0.864,0.025-1.728,0.033-2.591-0.002c-0.608-0.023-0.793,0.24-0.777,0.811
		c0.027,0.949-0.011,1.9,0.014,2.85c0.014,0.48-0.167,0.648-0.642,0.633c-0.82-0.027-1.641,0.008-2.46-0.012
		c-0.468-0.01-0.674,0.18-0.665,0.648c0.013,0.67,0.013,1.34,0,2.008c-0.009,0.467,0.195,0.658,0.664,0.646
		c0.82-0.02,1.642,0.016,2.461-0.012c0.475-0.016,0.652,0.15,0.642,0.633c-0.023,1.166,0.016,2.334-0.015,3.498
		c-0.016,0.596,0.157,0.871,0.804,0.836c0.819-0.045,1.642-0.041,2.46,0c0.61,0.027,0.84-0.174,0.828-0.807
		C33.406,75.854,33.428,74.039,33.427,72.225z M53.136,72.199c0-1.857-0.011-3.715,0.009-5.572c0.004-0.498-0.172-0.703-0.678-0.689
		c-0.907,0.021-1.815,0.018-2.721,0.002c-0.46-0.01-0.674,0.17-0.674,0.643c0.007,3.756,0.006,7.514,0,11.271
		c0,0.434,0.177,0.621,0.622,0.613c0.885-0.018,1.772-0.039,2.655,0.006c0.643,0.033,0.808-0.23,0.798-0.832
		C53.117,75.828,53.137,74.014,53.136,72.199z M74.166,70.586c-1.706,0-3.41,0.027-5.115-0.012
		c-0.667-0.016-0.885,0.217-0.833,0.861c0.047,0.6,0.026,1.209,0.005,1.811c-0.017,0.447,0.178,0.627,0.61,0.625
		c3.541-0.002,7.081-0.002,10.621,0.004c0.472,0.002,0.656-0.207,0.645-0.67c-0.02-0.625-0.03-1.254,0.003-1.877
		c0.03-0.564-0.194-0.758-0.754-0.75C77.62,70.604,75.893,70.588,74.166,70.586z M25.501,76.109c0-0.604-0.007-1.207,0.003-1.811
		c0.006-0.41-0.181-0.584-0.587-0.58c-0.97,0.01-1.941,0.008-2.911,0.002c-0.38-0.002-0.555,0.18-0.554,0.551
		c0,1.229,0,2.457,0.001,3.686c0,0.346,0.17,0.506,0.521,0.504c0.991-0.006,1.983-0.01,2.975,0c0.431,0.006,0.561-0.217,0.554-0.605
		C25.494,77.273,25.502,76.691,25.501,76.109z M25.501,67.984c0-0.494-0.005-0.99,0.001-1.484c0.004-0.375-0.162-0.559-0.544-0.555
		c-0.99,0.004-1.98,0.004-2.97,0c-0.388,0-0.536,0.211-0.536,0.568c0,1.012,0.004,2.025-0.002,3.035
		c-0.003,0.381,0.178,0.551,0.549,0.551c0.99-0.004,1.98-0.002,2.97-0.004c0.373,0,0.544-0.182,0.536-0.561
		C25.492,69.018,25.501,68.502,25.501,67.984z"/>
</g>
</svg>
