<?xml version="1.0" standalone="no"?><!DOCTYPE svg PUBLIC "-//W3C//DTD SVG 1.1//EN" "http://www.w3.org/Graphics/SVG/1.1/DTD/svg11.dtd"><svg class="icon" width="200px" height="199.80px" viewBox="0 0 1025 1024" version="1.1" xmlns="http://www.w3.org/2000/svg"><path fill="#268BFD" d="M1024 320c6.4-76.8-25.6-147.2-89.6-211.2-185.6-185.6-384 0-390.4 0L505.6 153.6 486.4 128C480 128 396.8 38.4 275.2 38.4c0 0 0 0 0 0C204.8 38.4 140.8 70.4 76.8 128 25.6 179.2 0 243.2 0 307.2c0 128 102.4 236.8 134.4 268.8L115.2 601.6C89.6 633.6 96 684.8 128 716.8c12.8 12.8 32 19.2 51.2 19.2 0 0 6.4 0 6.4 0 0 25.6 12.8 44.8 32 57.6 12.8 12.8 32 19.2 51.2 19.2 0 0 6.4 0 6.4 0 0 0 0 6.4 0 6.4 0 19.2 12.8 38.4 32 51.2 12.8 12.8 32 19.2 51.2 19.2 0 0 6.4 0 6.4 0 0 0 0 0 6.4 0 0 19.2 12.8 38.4 32 51.2 12.8 12.8 32 19.2 51.2 19.2 19.2 0 32-6.4 44.8-12.8L512 966.4c12.8 19.2 38.4 25.6 57.6 25.6 0 0 0 0 0 0 19.2 0 44.8-6.4 57.6-25.6 19.2-12.8 25.6-38.4 25.6-57.6 0 0 0-6.4 0-6.4 0 0 0 0 6.4 0 0 0 0 0 0 0 19.2 0 44.8-6.4 57.6-25.6 19.2-12.8 25.6-38.4 25.6-57.6 0 0 0-6.4 0-6.4 0 0 0 0 0 0 0 0 0 0 0 0 19.2 0 44.8-6.4 57.6-25.6 19.2-12.8 25.6-38.4 25.6-57.6 0 0 0-6.4 0-6.4 0 0 0 0 6.4 0 19.2 0 44.8-6.4 57.6-25.6 19.2-12.8 25.6-38.4 25.6-57.6 0-25.6-6.4-44.8-25.6-64l-12.8-12.8C947.2 518.4 1017.6 428.8 1024 320zM576 140.8c6.4-6.4 172.8-153.6 326.4 0C960 198.4 985.6 256 979.2 320c-6.4 89.6-64 166.4-108.8 211.2l-211.2-217.6-12.8 19.2C640 326.4 537.6 448 422.4 448c0 0 0 0 0 0C384 448 352 435.2 320 403.2L576 140.8zM160 678.4c-12.8-12.8-19.2-38.4-6.4-51.2L243.2 512C249.6 505.6 256 499.2 268.8 499.2c12.8 0 19.2 0 25.6 6.4s12.8 12.8 12.8 25.6c0 6.4 0 12.8-6.4 19.2-6.4 0-6.4 6.4-12.8 12.8l-96 115.2c0 0 0 0 0 0C185.6 691.2 166.4 691.2 160 678.4zM243.2 755.2c-12.8-12.8-19.2-32-6.4-44.8 0 0 6.4-6.4 6.4-6.4l96-115.2c0 0 0 0 0-6.4C339.2 582.4 345.6 576 352 576c12.8 0 19.2 0 25.6 6.4 6.4 6.4 12.8 12.8 12.8 25.6 0 6.4 0 19.2-6.4 25.6C384 633.6 384 640 377.6 640l-96 115.2c0 0 0 0 0 0-6.4 6.4-12.8 6.4-19.2 6.4C256 768 249.6 761.6 243.2 755.2zM352 844.8c-12.8 0-19.2 0-25.6-6.4C320 832 313.6 819.2 313.6 812.8c0-6.4 0-19.2 6.4-25.6 0 0 6.4-6.4 6.4-6.4l96-115.2c0 0 0 0 0 0 6.4-6.4 12.8-6.4 19.2-6.4 0 0 0 0 6.4 0 6.4 0 19.2 0 25.6 6.4 12.8 12.8 19.2 32 6.4 44.8 0 0 0 0 0 0l-96 115.2c0 0 0 6.4-6.4 6.4C364.8 838.4 358.4 844.8 352 844.8zM416 902.4c-6.4-6.4-12.8-12.8-12.8-25.6 0-6.4 0-12.8 6.4-19.2 0 0 0 0 0 0l96-115.2c0 0 0-6.4 6.4-6.4 6.4-6.4 12.8-12.8 25.6-12.8 6.4 0 12.8 0 25.6 6.4 6.4 6.4 12.8 12.8 12.8 25.6 0 12.8 0 19.2-6.4 25.6L467.2 896C454.4 915.2 435.2 915.2 416 902.4zM608 940.8c-6.4 6.4-19.2 12.8-32 12.8-12.8 0-19.2-6.4-32-12.8l-25.6-32 51.2-64 38.4 38.4c6.4 6.4 12.8 19.2 12.8 32C620.8 921.6 614.4 934.4 608 940.8zM876.8 665.6c-12.8 12.8-38.4 12.8-51.2 6.4 0 0 0-6.4-6.4-6.4L678.4 512c0 0-6.4-6.4-12.8-6.4-6.4-6.4-19.2 0-25.6 6.4-6.4 6.4-6.4 19.2 0 32l147.2 153.6c0 0 6.4 6.4 6.4 6.4 12.8 19.2 6.4 38.4-6.4 51.2-12.8 12.8-38.4 12.8-57.6 0 0 0 0 0 0 0L588.8 601.6c0 0-6.4-6.4-6.4-6.4-6.4-6.4-19.2-6.4-25.6 0-6.4 6.4-6.4 19.2 0 32l147.2 153.6c0 0 0 0 6.4 6.4 6.4 6.4 12.8 19.2 12.8 32 0 12.8-6.4 19.2-12.8 32-6.4 6.4-19.2 12.8-32 12.8-12.8 0-19.2-6.4-32-12.8l-38.4-38.4c12.8-12.8 12.8-32 12.8-51.2 0-19.2-12.8-38.4-32-51.2-19.2-12.8-38.4-19.2-64-19.2 0-19.2-12.8-38.4-32-51.2C473.6 614.4 454.4 608 435.2 614.4c0 0 0-6.4 0-6.4 0-19.2-12.8-38.4-32-51.2C390.4 537.6 371.2 531.2 352 531.2c0 0 0-6.4 0-6.4 0-19.2-12.8-38.4-32-51.2S288 454.4 262.4 454.4c-19.2 0-38.4 12.8-51.2 32L160 544C128 512 44.8 416 44.8 307.2c0-57.6 19.2-102.4 64-147.2 51.2-51.2 108.8-76.8 166.4-76.8 102.4 0 172.8 76.8 172.8 76.8l19.2 25.6L256 403.2l12.8 12.8c44.8 51.2 96 76.8 153.6 76.8 0 0 0 0 0 0 102.4 0 198.4-83.2 236.8-121.6L729.6 448c0 0 0 6.4 6.4 6.4l147.2 153.6C889.6 614.4 896 627.2 896 640 889.6 646.4 889.6 659.2 876.8 665.6z" /></svg>