<?xml version="1.0" standalone="no"?><!DOCTYPE svg PUBLIC "-//W3C//DTD SVG 1.1//EN" "http://www.w3.org/Graphics/SVG/1.1/DTD/svg11.dtd"><svg class="icon" width="200px" height="200.00px" viewBox="0 0 1024 1024" version="1.1" xmlns="http://www.w3.org/2000/svg"><path d="M748.4 389.2H311.7V336h414.4c12.3 0 22.3 9.9 22.3 22.2v31zM311.7 584.1h436.7v-53.2H311.7z" fill="#9CD6FC" /><path d="M311.7 681.5V203.2h31.2c12.3 0 22.3 9.9 22.3 22.2v456.2h-53.5z" fill="#9CD6FC" /><path d="M694.9 681.5V305.1c0-12.2 10-22.1 22.3-22.1h8.9c12.3 0 22.3 9.9 22.3 22.1v376.5h-53.5z" fill="#CFECFE" /><path d="M726.1 282.9h-8.9c-3.2 0-6.2 0.7-8.9 1.9 7.9 3.4 13.4 11.2 13.4 20.3v376.5h26.7V305.1c0-12.3-10-22.2-22.3-22.2" fill="#9CD6FC" /><path d="M311.7 681.5h26.7V203.2h-26.7z" fill="#CFECFE" /><path d="M258.2 681.5c0-44 35.9-79.7 80.2-79.7 44.3 0 80.2 35.7 80.2 79.7s-35.9 79.7-80.2 79.7c-44.3 0.1-80.2-35.6-80.2-79.7" fill="#0C4C8E" /><path d="M302.8 681.5c0-19.6 16-35.4 35.7-35.4 19.7 0 35.7 15.9 35.7 35.4 0 19.6-16 35.4-35.7 35.4-19.8 0.1-35.7-15.8-35.7-35.4" fill="#1395FD" /><path d="M641.4 681.5c0-44 35.9-79.7 80.2-79.7 44.3 0 80.2 35.7 80.2 79.7s-35.9 79.7-80.2 79.7c-44.2 0.1-80.2-35.6-80.2-79.7" fill="#0C4C8E" /><path d="M686 681.5c0-19.6 16-35.4 35.7-35.4 19.7 0 35.7 15.9 35.7 35.4 0 19.6-16 35.4-35.7 35.4-19.7 0.1-35.7-15.8-35.7-35.4" fill="#3DACFD" /><path d="M721.7 646.1c-3.1 0-6 0.5-8.9 1.3 15.4 3.9 26.7 17.7 26.7 34.2s-11.4 30.2-26.7 34.2c2.9 0.7 5.8 1.3 8.9 1.3 19.7 0 35.7-15.9 35.7-35.4-0.1-19.7-16-35.6-35.7-35.6" fill="#1395FD" /><path d="M338.4 717c3.1 0 6-0.5 8.9-1.3-15.4-3.9-26.7-17.7-26.7-34.2 0-16.5 11.4-30.2 26.7-34.2-2.9-0.7-5.8-1.3-8.9-1.3-19.7 0-35.7 15.9-35.7 35.4 0.1 19.7 16 35.6 35.7 35.6" fill="#3DACFD" /><path d="M365.1 256.4H262.6c-12.3 0-22.3-9.9-22.3-22.1v-8.9c0-12.2 10-22.2 22.3-22.2h80.2c12.3 0 22.3 9.9 22.3 22.2v31z" fill="#9CD6FC" /><path d="M615.8 211h-162c-14 0-25.3 11.3-25.3 25.2v191.2c0 13.9 11.3 25.2 25.3 25.2h23.5c5.6 0 10.5 3.7 12.1 9l2.2 7.2c1.6 5.3 6.5 9 12.1 9h62.2c5.6 0 10.5-3.6 12.1-9l2.2-7.2c1.6-5.3 6.5-9 12.1-9h23.5c14 0 25.3-11.3 25.3-25.2V236.2c0.1-13.9-11.3-25.2-25.3-25.2" fill="#1395FD" /><path d="M615.8 211h-15.2c14 0 25.3 11.3 25.3 25.2v191.2c0 13.9-11.3 25.2-25.3 25.2h15.2c14 0 25.3-11.3 25.3-25.2V236.2c0.1-13.9-11.3-25.2-25.3-25.2" fill="#0A70BE" /><path d="M565 461.6l-2.2 7.2c-1.6 5.3-6.5 9-12.1 9h15.2c5.6 0 10.5-3.6 12.1-9l2.2-7.2c1.6-5.3 6.5-9 12.1-9h-15.2c-5.5 0-10.5 3.6-12.1 9" fill="#53B8E8" /><path d="M453.8 211H469c-14 0-25.3 11.3-25.3 25.2v191.2c0 13.9 11.3 25.2 25.3 25.2h-15.2c-14 0-25.3-11.3-25.3-25.2V236.2c0-13.9 11.3-25.2 25.3-25.2M504.6 461.6l2.2 7.2c1.6 5.3 6.5 9 12.1 9h-15.2c-5.6 0-10.5-3.6-12.1-9l-2.2-7.2c-1.6-5.3-6.5-9-12.1-9h15.2c5.6 0 10.5 3.6 12.1 9" fill="#3DACFD" /><path d="M613.3 432.5h-157c-7 0-12.7-5.6-12.7-12.6V316.7H626v103.2c0 6.9-5.7 12.6-12.7 12.6" fill="#CFECFE" /><path d="M519.6 528.1H550v-50.3h-30.4z" fill="#3DACFD" /><path d="M491.8 256.3h-25.3c-4.2 0-7.6-3.4-7.6-7.5 0-4.2 3.4-7.5 7.6-7.5h25.3c4.2 0 7.6 3.4 7.6 7.5s-3.4 7.5-7.6 7.5M491.8 301.6h-25.3c-4.2 0-7.6-3.4-7.6-7.5s3.4-7.5 7.6-7.5h25.3c4.2 0 7.6 3.4 7.6 7.5s-3.4 7.5-7.6 7.5M491.8 346.9h-25.3c-4.2 0-7.6-3.4-7.6-7.5 0-4.2 3.4-7.5 7.6-7.5h25.3c4.2 0 7.6 3.4 7.6 7.5s-3.4 7.5-7.6 7.5M491.8 392.2h-25.3c-4.2 0-7.6-3.4-7.6-7.5s3.4-7.5 7.6-7.5h25.3c4.2 0 7.6 3.4 7.6 7.5s-3.4 7.5-7.6 7.5" fill="#FFFFFF" /></svg>