<?xml version="1.0" standalone="no"?><!DOCTYPE svg PUBLIC "-//W3C//DTD SVG 1.1//EN" "http://www.w3.org/Graphics/SVG/1.1/DTD/svg11.dtd"><svg class="icon" width="200px" height="200.00px" viewBox="0 0 1024 1024" version="1.1" xmlns="http://www.w3.org/2000/svg"><path fill="#268BFD" d="M938.666667 810.666667V85.333333H106.666667v448h21.333333v64h64v85.333334h42.666667v-85.333334h64v-64h21.333333V298.666667h362.666667v512h-106.666667v-85.333334h-170.666667v85.333334h-106.666666v-85.333334H128v85.333334H42.666667v128h938.666666v-128zM256 554.666667H170.666667v-21.333334h85.333333z m21.333333-298.666667v234.666667H149.333333V128h746.666667v682.666667h-170.666667V256z m170.666667 512h85.333333v42.666667h-85.333333zM170.666667 768h85.333333v42.666667H170.666667z m768 128H85.333333v-42.666667h853.333334zM661.333333 192m-42.666666 0a42.666667 42.666667 0 1 0 85.333333 0 42.666667 42.666667 0 1 0-85.333333 0ZM277.333333 170.666667h298.666667v42.666666H277.333333zM789.333333 597.333333h42.666667v170.666667h-42.666667zM789.333333 469.333333h42.666667v85.333334h-42.666667zM789.333333 341.333333h42.666667v85.333334h-42.666667z" /></svg>