<?xml version="1.0" standalone="no"?><!DOCTYPE svg PUBLIC "-//W3C//DTD SVG 1.1//EN" "http://www.w3.org/Graphics/SVG/1.1/DTD/svg11.dtd"><svg t="1562243778645" class="icon" viewBox="0 0 1024 1024" version="1.1" xmlns="http://www.w3.org/2000/svg" p-id="2712" xmlns:xlink="http://www.w3.org/1999/xlink" width="200" height="200"><defs><style type="text/css"></style></defs><path d="M238.025 612.414c-42.089 0-81.367-12.113-114.538-33.033v150.646h16.964v1.343h532.254v-1.343h16.506V404.795c0-0.855 0.31-1.627 0.49-2.429v-50.259c0-9.457-7.618-17.125-16.995-17.125H443.884c5.981 19.75 9.214 40.68 9.214 62.378 0 118.75-96.312 215.054-215.073 215.054zM707.757 836.972c-0.831 4.901-1.348 9.914-1.348 15.011 0 0.73 0.092 1.419 0.092 2.111 1.138 48.718 40.663 88.042 89.242 88.042s88.117-39.325 89.241-88.042c0.013-0.693 0.097-1.38 0.097-2.11 0-5.105-0.521-10.111-1.335-15.012a90.43 90.43 0 0 0-4.625-17.138c-9.69-25.416-30.423-45.386-56.309-53.688a88.202 88.202 0 0 0-27.07-4.259c-9.41 0-18.494 1.51-27.057 4.26-25.886 8.302-46.62 28.271-56.307 53.687a88.665 88.665 0 0 0-4.621 17.138z m50.578 15.011c0-5.318 1.137-10.372 3.141-15.01 3.108-7.16 8.382-13.067 14.946-17.139 5.662-3.449 12.24-5.586 19.322-5.586 7.094 0 13.671 2.137 19.322 5.586 6.594 4.079 11.882 9.986 14.974 17.138 2.005 4.639 3.144 9.693 3.144 15.011 0 0.744-0.164 1.41-0.228 2.111-1.109 19.83-17.29 35.641-37.216 35.641s-36.091-15.81-37.213-35.64c-0.035-0.703-0.198-1.368-0.192-2.112z" fill="#1296db" p-id="2713"></path><path d="M429.859 819.836c1.653 5.546 2.795 11.293 3.577 17.138 0.666 4.934 1.127 9.92 1.127 15.011 0 0.73-0.093 1.41-0.12 2.105H683.85c-0.013-0.697-0.097-1.375-0.097-2.105 0-5.092 0.454-10.077 1.125-15.01 0.765-5.846 1.923-11.593 3.567-17.139 6.25-21.152 18.491-39.712 34.74-53.694h1.267c-0.373 0-0.749-0.102-1.158-0.135 8.029-6.86 16.999-12.613 26.716-17.012 7.28-3.283 14.91-5.88 22.907-7.555a108.999 108.999 0 0 1 22.823-2.397c7.828 0 15.463 0.822 22.823 2.397 8.009 1.675 15.661 4.272 22.902 7.555a111.733 111.733 0 0 1 26.847 17.147c16.246 13.989 28.486 32.542 34.735 53.694 1.629 5.546 2.787 11.293 3.552 17.138 0.686 4.934 1.125 9.92 1.125 15.011 0 0.73-0.084 1.41-0.113 2.105h18.587c9.378 0 16.98-7.656 16.98-17.116v-87.972c0-4.352-1.706-8.31-4.343-11.332V609.71c0-98.979-64.728-150.143-67.495-152.275a16.832 16.832 0 0 0-10.318-3.532H724.454c-5.03 0-9.489 2.249-12.598 5.767v281.775c0 2.922-1.195 5.552-2.984 7.555h-1.397c0 0.4 0.097 0.754 0.116 1.148-1.94 1.616-4.349 2.69-7.048 2.69H376.14c6.802 3.778 13.142 8.263 18.99 13.31 16.25 13.984 28.505 32.545 34.728 53.688zM741.43 588.385l-0.001-100.23h113.305c11.297 10.461 42.241 44.006 48.82 100.23H741.43zM234.599 836.983c-0.842 4.89-1.354 9.904-1.354 15 0 0.73 0.08 1.419 0.101 2.111 1.141 48.718 40.66 88.042 89.234 88.042 48.583 0 88.118-39.325 89.25-88.042 0.014-0.693 0.094-1.38 0.094-2.11 0-5.105-0.507-10.111-1.362-15.001a88.744 88.744 0 0 0-4.619-17.149c-9.685-25.416-30.422-45.386-56.303-53.688a88.078 88.078 0 0 0-54.109 0c-25.896 8.303-46.626 28.272-56.318 53.688a91.035 91.035 0 0 0-4.614 17.149z m50.561 15c0-5.318 1.134-10.372 3.136-15.01 3.091-7.16 8.396-13.067 14.985-17.139 5.666-3.449 12.207-5.586 19.3-5.586 7.096 0 13.664 2.137 19.33 5.586 6.574 4.079 11.84 9.986 14.956 17.138 1.983 4.639 3.117 9.693 3.117 15.011 0 0.744-0.158 1.41-0.179 2.111-1.125 19.83-17.295 35.641-37.225 35.641-19.915 0-36.112-15.81-37.214-35.64-0.034-0.703-0.207-1.368-0.206-2.112zM157.996 748.49c0 0.166-0.046 0.345-0.046 0.513v87.982c0 9.46 7.572 17.112 16.957 17.112h35.8c0-0.693-0.102-1.38-0.102-2.11 0-5.083 0.468-10.078 1.116-15.002 0.78-5.846 1.915-11.593 3.584-17.139 6.234-21.15 18.481-39.713 34.74-53.697 5.836-5.047 12.173-9.53 18.98-13.302 2.536-1.414 5.172-2.627 7.802-3.844 0.394-0.148 0.742-0.361 1.109-0.508v-0.006h-119.94zM63.304 397.361c0 96.494 78.223 174.718 174.72 174.718 96.501 0 174.732-78.225 174.732-174.718 0-96.504-78.23-174.73-174.732-174.73-96.495 0-174.719 78.226-174.72 174.73z m293.762-52.638l-70.69 48.508s-4.474 1.64-8.298 0.832c-4.119-0.872-4.072-3.888-4.072-3.888v-37.289h-68.771s-54.23 7.28-54.23 27.38c0 0 0.915-63.213 55.974-63.213h67.026v-39.84s-0.114-2.115 4.043-3.027c3.481-0.768 6.823 1.589 6.823 1.589l70.281 49.829s6.573 3.364 6.573 9.998c0 6.482-4.658 9.122-4.66 9.121zM116.152 459.16c0-6.488 4.663-9.131 4.663-9.131l70.758-48.551s2.942-1.782 6.94-0.738c4.94 1.288 5.16 3.797 5.16 3.797v37.327h69.118s54.261-7.291 54.261-27.41c0 0-0.907 63.273-56.016 63.273l-67.364-0.002v39.879s-0.735 2.429-5.16 3.01c-2.95 0.391-4.793-1.108-5.434-1.569-1.48-1.046-70.346-49.88-70.346-49.88s-6.58-3.363-6.58-10.005z" fill="#1296db" p-id="2714"></path></svg>